<svg xmlns="http://www.w3.org/2000/svg" xmlns:xlink="http://www.w3.org/1999/xlink" width="283.143" height="83.275" viewBox="0 0 283.143 83.275"><defs><clipPath id="a"><path d="M2240.846,1199.148c.536.563,20.927-8.642,20.922-4.045l.4,66.638a18.02,18.02,0,0,0,6.474,1.7c2.955,0,7.137-2.074,7.137-2.074l-.267-66.265c.073-4.212,18.464,4.935,19.448,4.282s2.132-14.418-1.3-15.333a90.122,90.122,0,0,0-25.023-3.884c-13.535-.066-26.7,4.274-26.7,4.274C2240.385,1184.856,2240.31,1198.584,2240.846,1199.148Z" transform="translate(-2240.545 -1180.167)" fill="none" stroke="#707070" stroke-linejoin="round" stroke-width="0.5"/></clipPath></defs><g transform="translate(-65.857 -1463)"><g transform="translate(66 1463)"><g transform="translate(0 5.44)"><path d="M2241.216,1184.286s-2.9,17.3,2.022,20.314,17.314,6.191,17.314,6.191v11.1s-28.282-5.406-29.457-7.441-2.389-23.208-1.88-24.67S2241.216,1184.286,2241.216,1184.286Z" transform="translate(-2229.096 -1184.239)" fill="#ebebeb" stroke="rgba(112,112,112,0.12)" stroke-linejoin="round" stroke-width="0.2"/><path d="M2285.5,1185.251c1.28,5.03,1.748,12.572-3.571,24.461,0,0,.4,1.308,5.753,3.448s7.787,1.843,7.787,1.843a105.977,105.977,0,0,0,2.009-14.528,64.538,64.538,0,0,0,0-9.584C2297.429,1189.321,2285.5,1185.251,2285.5,1185.251Z" transform="translate(-2214.388 -1185.251)" fill="#ebebeb" stroke="rgba(112,112,112,0.12)" stroke-linejoin="round" stroke-width="0.2"/><path d="M2269.285,1209.594l28.12,7.3c-4.223,16.207-12.878,30.194-28.12,38.926V1241.28c11.833-6.658,13.368-17.156,13.368-17.156l-13.368-3.195Z" transform="translate(-2217.255 -1181.468)" fill="#ebebeb" stroke="rgba(112,112,112,0.12)" stroke-linejoin="round" stroke-width="0.2"/><path d="M2260.941,1238.75v14.743c-7.459-3.893-23.162-11.955-28.385-35.965l14.7,3.735C2246.7,1233.248,2260.941,1238.75,2260.941,1238.75Z" transform="translate(-2229.28 -1178.834)" fill="#ebebeb" stroke="rgba(112,112,112,0.12)" stroke-linejoin="round" stroke-width="0.2"/></g><g transform="translate(13.834)" clip-path="url(#a)"><g transform="translate(-6.055 -7.271)" fill="#e05858" stroke="#707070" stroke-width="1"><rect width="86.528" height="94.415" stroke="none"/><rect x="0.5" y="0.5" width="85.528" height="93.415" fill="none"/></g><g transform="translate(-6.26 -8.795)"><path d="M2437.868,1179.074l-9.644-5.405-14.975,12.52,22.105,4.529Z" transform="translate(-2395.395 -1173.498)" fill="#ff3b3b"/><path d="M2428.266,1220.985l6.25,37.526-12.635-1.159Z" transform="translate(-2392.531 -1158.017)" fill="#ff2828"/><path d="M2420.25,1223.989l16.1,5.093.258-18.165-17.763-5.047Z" transform="translate(-2393.539 -1162.963)" fill="#e05858"/><path d="M2435.252,1220.412l-6.648-7.92-9.6-4.1.6-6.589,25.5,7.43Z" transform="translate(-2393.486 -1164.293)" fill="#ff2828"/><path d="M2430.682,1214.453l-17.939-18.855,48.383,6.488Z" transform="translate(-2395.563 -1166.323)" fill="#ff3b3b"/><path d="M2420.238,1231.316l9.223-8.672-9.989-3.89Z" transform="translate(-2393.33 -1158.747)" fill="#ff6262"/><path d="M2423.4,1257.206l4.195-24.736,1.825-10.172-.161-.8-10.691,10.722v24.984Z" transform="translate(-2393.63 -1157.848)" fill="#e05858"/><path d="M2430.192,1244.367l2.761-2.453.811-18.171-7.169-2.21Z" transform="translate(-2390.964 -1157.838)" fill="#ff3b3b"/><path d="M2431.438,1253.276h5.255l-4.714-16.406-2.708,2.488Z" transform="translate(-2390.075 -1152.82)" fill="#ff5353"/><path d="M2429.356,1188.476l2.761-9.6,43.3,3.3-11.044,26.626Z" transform="translate(-2390.048 -1171.796)" fill="#ff2828"/><path d="M2404.739,1193.725l14.175-7.472,14.629-12.713-33.7,1.733Z" transform="translate(-2399.846 -1173.541)" fill="#e05858"/><path d="M2415.312,1183.119l20.486,3.918-24.967,12.438Z" transform="translate(-2396.198 -1170.406)" fill="#ff2828"/><path d="M2410.816,1198.454l24.938-12.441L2471.991,1207Z" transform="translate(-2396.204 -1169.46)" fill="#e05858"/><path d="M2403.344,1190.744l.689,13.032h8.776l6.722-21.825Z" transform="translate(-2398.684 -1170.789)" fill="#ff3535"/></g></g></g><g transform="translate(147.323 1468.855)"><text transform="translate(-0.323 59.145)" fill="#45425f" font-size="48" font-family="Poppins-Bold, Poppins" font-weight="700"><tspan x="0" y="0">Alliance</tspan></text><text transform="translate(9.677 19.145)" fill="#e05858" font-size="18" font-family="Poppins-SemiBold, Poppins" font-weight="600"><tspan x="0" y="0">THE TS</tspan></text></g></g></svg>